<svg viewBox="0 0 40 40" xmlns="http://www.w3.org/2000/svg">
    <path d="M 20,30 A 10,10 0 0 0 20,10 10,10 0 0 0 20,30 z
             M 20.0,17.2 L 22.8,14.3 L 25.7,14.3 L 25.7,17.2
             L 22.8,20.0 L 23.5,20.7 L 22.8,21.4 L 24.2,22.8 L 25.7,22.8
             L 26.4,23.5 L 25.7,24.2 L 26.4,25.0 L 25.0,26.4 L 24.2,25.7
             L 23.5,26.4 L 22.8,25.7 L 22.8,24.2 L 21.4,22.8 L 20.7,23.5
             L 20.0,22.8
             L 19.3,23.5 L 18.6,22.8 L 17.2,24.2 L 17.2,25.7 L 16.5,26.4
             L 15.8,25.7 L 15.1,26.4 L 13.6,25.0 L 14.3,24.2 L 13.6,23.5
             L 14.3,22.8 L 15.8,22.8 L 17.2,21.4 L 16.5,20.7 L 17.2,20.0
             L 14.3,17.2 L 14.3,14.3 L 17.2,14.3 z
             M 24.2,15.8 L 18.6,21.4
             M 15.8,15.8 L 21.4,21.4"
          stroke-width="0.75" fill="#c0c0ff" stroke="black" />
</svg>
